<svg xmlns="http://www.w3.org/2000/svg" id="Layer_1" data-name="Layer 1" viewBox="0 0 997.64 195.19"><path class="acls-1" fill="#2ac7a4" d="M107.91 170.72l-70.98-39.66v-77.9l70.98 39.67v77.89z"/>
 <path class="acls-2" fill="#0e8167" d="M144.37 170.72l70.97-39.66v-77.9l-70.97 39.67v77.89z"/>
 <path class="acls-3" fill="none" opacity=".8" stroke="#2ac7a4" stroke-linecap="round" stroke-linejoin="round" stroke-width="2.2" d="M126.09 144.13l-70.97-39.67V26.57l70.97 39.67v77.89zM126.09 144.13l71.07-39.46V26.78l-70.98 39.66"/>
 <path class="acls-4" fill="#586965" d="M262.71 156.49h26.01V86.16l35.08 57.67h12.49l35.25-59.21.17 71.87h26.01l-.34-119.79h-22.76l-44.41 73.12-46.34-73.12h-21.16v119.79zM487.81 36.7h-27.38L407 156.49h28.41l10.61-25.67h55.61l10.61 25.67h29.09zm-32.91 72.8l19.31-46 18.6 46zM554.22 36.7h27.72v97.2H642v22.59h-87.78V36.7zM657.57 36.7h27.72v119.79h-27.72zM843.58 39h27.72v69.82s-.19 30 26.7 28.4c0 0 25.18 3.06 26.89-27.21.24 0-.2-71-.2-71h27.38v72s.71 50.16-54.24 49.86c0 0-51.58 4.58-54.25-51.57zM799.35 94.2S818.8 84 814.69 62.61c0-.2-2.09-24.52-40.33-25.91.21.19-63 0-63 0v119.79h66s32.21 0 40.76-19c.65.51 13.8-31.6-18.77-43.29zm-60.43-36.64h27.43s21.44-1.47 21.06 14.21c-.07.06 2.09 13.72-19.7 14.07 0 .06-28.79-.12-28.79-.12zm54.57 64.85c-.78 13-19 12.46-19 12.46H739.1v-27.41s35.29-.13 35.42 0c18.25.62 19.17 10.29 19.06 13.05v.26a14.59 14.59 0 0 1-.09 1.64z"/></svg>
