<svg width="24" height="24" viewBox="0 0 24 24" fill="none" xmlns="http://www.w3.org/2000/svg">
	<mask id="mask0_1536_210699" style="mask-type:alpha" maskUnits="userSpaceOnUse" x="0" y="0" width="24" height="24">
		<rect width="24" height="24" fill="#D9D9D9" />
	</mask>
	<g mask="url(#mask0_1536_210699)">
		<path d="M5.30773 20.5C4.8026 20.5 4.37503 20.325 4.02503 19.975C3.67503 19.625 3.50003 19.1974 3.50003 18.6923V5.30773C3.50003 4.8026 3.67503 4.37503 4.02503 4.02503C4.37503 3.67503 4.8026 3.50003 5.30773 3.50003H18.6923C19.1974 3.50003 19.625 3.67503 19.975 4.02503C20.325 4.37503 20.5 4.8026 20.5 5.30773V18.6923C20.5 19.1974 20.325 19.625 19.975 19.975C19.625 20.325 19.1974 20.5 18.6923 20.5H5.30773ZM5.30773 19H18.6923C18.7692 19 18.8397 18.968 18.9039 18.9039C18.968 18.8397 19 18.7692 19 18.6923V5.30773C19 5.2308 18.968 5.16027 18.9039 5.09616C18.8397 5.03206 18.7692 5.00001 18.6923 5.00001H5.30773C5.2308 5.00001 5.16027 5.03206 5.09616 5.09616C5.03206 5.16027 5.00001 5.2308 5.00001 5.30773V18.6923C5.00001 18.7692 5.03206 18.8397 5.09616 18.9039C5.16027 18.968 5.2308 19 5.30773 19ZM6.75006 16.75H17.3269L14.0385 12.3654L11.2308 16.0192L9.23078 13.4616L6.75006 16.75Z" fill="#0C1215" />
		<path d="M5.30773 20.5C4.8026 20.5 4.37503 20.325 4.02503 19.975C3.67503 19.625 3.50003 19.1974 3.50003 18.6923V5.30773C3.50003 4.8026 3.67503 4.37503 4.02503 4.02503C4.37503 3.67503 4.8026 3.50003 5.30773 3.50003H18.6923C19.1974 3.50003 19.625 3.67503 19.975 4.02503C20.325 4.37503 20.5 4.8026 20.5 5.30773V18.6923C20.5 19.1974 20.325 19.625 19.975 19.975C19.625 20.325 19.1974 20.5 18.6923 20.5H5.30773ZM5.30773 19H18.6923C18.7692 19 18.8397 18.968 18.9039 18.9039C18.968 18.8397 19 18.7692 19 18.6923V5.30773C19 5.2308 18.968 5.16027 18.9039 5.09616C18.8397 5.03206 18.7692 5.00001 18.6923 5.00001H5.30773C5.2308 5.00001 5.16027 5.03206 5.09616 5.09616C5.03206 5.16027 5.00001 5.2308 5.00001 5.30773V18.6923C5.00001 18.7692 5.03206 18.8397 5.09616 18.9039C5.16027 18.968 5.2308 19 5.30773 19ZM6.75006 16.75H17.3269L14.0385 12.3654L11.2308 16.0192L9.23078 13.4616L6.75006 16.75Z" fill="black" fill-opacity="0.2" />
		<path d="M5.30773 20.5C4.8026 20.5 4.37503 20.325 4.02503 19.975C3.67503 19.625 3.50003 19.1974 3.50003 18.6923V5.30773C3.50003 4.8026 3.67503 4.37503 4.02503 4.02503C4.37503 3.67503 4.8026 3.50003 5.30773 3.50003H18.6923C19.1974 3.50003 19.625 3.67503 19.975 4.02503C20.325 4.37503 20.5 4.8026 20.5 5.30773V18.6923C20.5 19.1974 20.325 19.625 19.975 19.975C19.625 20.325 19.1974 20.5 18.6923 20.5H5.30773ZM5.30773 19H18.6923C18.7692 19 18.8397 18.968 18.9039 18.9039C18.968 18.8397 19 18.7692 19 18.6923V5.30773C19 5.2308 18.968 5.16027 18.9039 5.09616C18.8397 5.03206 18.7692 5.00001 18.6923 5.00001H5.30773C5.2308 5.00001 5.16027 5.03206 5.09616 5.09616C5.03206 5.16027 5.00001 5.2308 5.00001 5.30773V18.6923C5.00001 18.7692 5.03206 18.8397 5.09616 18.9039C5.16027 18.968 5.2308 19 5.30773 19ZM6.75006 16.75H17.3269L14.0385 12.3654L11.2308 16.0192L9.23078 13.4616L6.75006 16.75Z" fill="black" fill-opacity="0.2" />
		<path d="M5.30773 20.5C4.8026 20.5 4.37503 20.325 4.02503 19.975C3.67503 19.625 3.50003 19.1974 3.50003 18.6923V5.30773C3.50003 4.8026 3.67503 4.37503 4.02503 4.02503C4.37503 3.67503 4.8026 3.50003 5.30773 3.50003H18.6923C19.1974 3.50003 19.625 3.67503 19.975 4.02503C20.325 4.37503 20.5 4.8026 20.5 5.30773V18.6923C20.5 19.1974 20.325 19.625 19.975 19.975C19.625 20.325 19.1974 20.5 18.6923 20.5H5.30773ZM5.30773 19H18.6923C18.7692 19 18.8397 18.968 18.9039 18.9039C18.968 18.8397 19 18.7692 19 18.6923V5.30773C19 5.2308 18.968 5.16027 18.9039 5.09616C18.8397 5.03206 18.7692 5.00001 18.6923 5.00001H5.30773C5.2308 5.00001 5.16027 5.03206 5.09616 5.09616C5.03206 5.16027 5.00001 5.2308 5.00001 5.30773V18.6923C5.00001 18.7692 5.03206 18.8397 5.09616 18.9039C5.16027 18.968 5.2308 19 5.30773 19ZM6.75006 16.75H17.3269L14.0385 12.3654L11.2308 16.0192L9.23078 13.4616L6.75006 16.75Z" fill="black" fill-opacity="0.2" />
		<path d="M5.30773 20.5C4.8026 20.5 4.37503 20.325 4.02503 19.975C3.67503 19.625 3.50003 19.1974 3.50003 18.6923V5.30773C3.50003 4.8026 3.67503 4.37503 4.02503 4.02503C4.37503 3.67503 4.8026 3.50003 5.30773 3.50003H18.6923C19.1974 3.50003 19.625 3.67503 19.975 4.02503C20.325 4.37503 20.5 4.8026 20.5 5.30773V18.6923C20.5 19.1974 20.325 19.625 19.975 19.975C19.625 20.325 19.1974 20.5 18.6923 20.5H5.30773ZM5.30773 19H18.6923C18.7692 19 18.8397 18.968 18.9039 18.9039C18.968 18.8397 19 18.7692 19 18.6923V5.30773C19 5.2308 18.968 5.16027 18.9039 5.09616C18.8397 5.03206 18.7692 5.00001 18.6923 5.00001H5.30773C5.2308 5.00001 5.16027 5.03206 5.09616 5.09616C5.03206 5.16027 5.00001 5.2308 5.00001 5.30773V18.6923C5.00001 18.7692 5.03206 18.8397 5.09616 18.9039C5.16027 18.968 5.2308 19 5.30773 19ZM6.75006 16.75H17.3269L14.0385 12.3654L11.2308 16.0192L9.23078 13.4616L6.75006 16.75Z" fill="black" fill-opacity="0.2" />
	</g>
</svg>
