<svg width="24" height="24" viewBox="0 0 24 24" fill="none" xmlns="http://www.w3.org/2000/svg">
<mask id="mask0_1597_60240" style="mask-type:alpha" maskUnits="userSpaceOnUse" x="0" y="0" width="24" height="24">
<rect width="24" height="24" fill="#D9D9D9"/>
</mask>
<g mask="url(#mask0_1597_60240)">
<path d="M11.25 21.5V13.2923C11.0141 13.1474 10.8302 12.9667 10.6981 12.7503C10.5661 12.5338 10.5 12.2833 10.5 11.9988C10.5 11.5906 10.6478 11.2388 10.9433 10.9433C11.2388 10.6478 11.591 10.5 12 10.5C12.409 10.5 12.7612 10.6478 13.0567 10.9433C13.3522 11.2388 13.5 11.5903 13.5 11.9977C13.5 12.2817 13.434 12.5348 13.3019 12.757C13.1699 12.9792 12.9859 13.1577 12.75 13.2923V21.5H11.25ZM5.45581 18.8942C4.54427 18.0224 3.82376 16.9965 3.29428 15.8164C2.76478 14.6363 2.50003 13.3651 2.50003 12.0029C2.50003 10.6881 2.74936 9.45271 3.24803 8.29658C3.7467 7.14043 4.42345 6.13475 5.27828 5.27953C6.13313 4.4243 7.13837 3.74724 8.29401 3.24836C9.44962 2.74947 10.6844 2.50003 11.9983 2.50003C13.3123 2.50003 14.5473 2.74945 15.7034 3.24828C16.8596 3.7471 17.8653 4.42407 18.7205 5.27921C19.5757 6.13432 20.2528 7.13988 20.7517 8.29588C21.2505 9.45188 21.5 10.6871 21.5 12.0014C21.5 13.3633 21.2352 14.6372 20.7057 15.8231C20.1762 17.009 19.4557 18.0327 18.5442 18.8942L17.5 17.8404C18.2667 17.1083 18.875 16.2389 19.325 15.2322C19.775 14.2255 20 13.1481 20 12C20 9.76667 19.225 7.87501 17.675 6.32501C16.125 4.77501 14.2333 4.00001 12 4.00001C9.76667 4.00001 7.87501 4.77501 6.32501 6.32501C4.77501 7.87501 4.00001 9.76667 4.00001 12C4.00001 13.15 4.22501 14.225 4.67501 15.225C5.12501 16.225 5.74167 17.0917 6.52501 17.825L5.45581 18.8942ZM8.28081 16.0692C7.73594 15.5641 7.30293 14.9627 6.98178 14.2652C6.66061 13.5676 6.50003 12.8126 6.50003 12C6.50003 10.4722 7.03453 9.17364 8.10353 8.10421C9.17253 7.03476 10.4706 6.50003 11.9977 6.50003C13.5249 6.50003 14.8237 7.03512 15.8942 8.10531C16.9647 9.17549 17.5 10.475 17.5 12.0038C17.5 12.8141 17.3394 13.5705 17.0182 14.2731C16.6971 14.9756 16.2641 15.5743 15.7192 16.0692L14.65 15C15.0667 14.6167 15.3958 14.1667 15.6375 13.65C15.8792 13.1333 16 12.5833 16 12C16 10.9 15.6083 9.95834 14.825 9.17501C14.0417 8.39167 13.1 8.00001 12 8.00001C10.9 8.00001 9.95834 8.39167 9.17501 9.17501C8.39167 9.95834 8.00001 10.9 8.00001 12C8.00001 12.6 8.12084 13.1542 8.36251 13.6625C8.60417 14.1708 8.93334 14.6167 9.35001 15L8.28081 16.0692Z" fill="#0C1215"/>
<path d="M11.25 21.5V13.2923C11.0141 13.1474 10.8302 12.9667 10.6981 12.7503C10.5661 12.5338 10.5 12.2833 10.5 11.9988C10.5 11.5906 10.6478 11.2388 10.9433 10.9433C11.2388 10.6478 11.591 10.5 12 10.5C12.409 10.5 12.7612 10.6478 13.0567 10.9433C13.3522 11.2388 13.5 11.5903 13.5 11.9977C13.5 12.2817 13.434 12.5348 13.3019 12.757C13.1699 12.9792 12.9859 13.1577 12.75 13.2923V21.5H11.25ZM5.45581 18.8942C4.54427 18.0224 3.82376 16.9965 3.29428 15.8164C2.76478 14.6363 2.50003 13.3651 2.50003 12.0029C2.50003 10.6881 2.74936 9.45271 3.24803 8.29658C3.7467 7.14043 4.42345 6.13475 5.27828 5.27953C6.13313 4.4243 7.13837 3.74724 8.29401 3.24836C9.44962 2.74947 10.6844 2.50003 11.9983 2.50003C13.3123 2.50003 14.5473 2.74945 15.7034 3.24828C16.8596 3.7471 17.8653 4.42407 18.7205 5.27921C19.5757 6.13432 20.2528 7.13988 20.7517 8.29588C21.2505 9.45188 21.5 10.6871 21.5 12.0014C21.5 13.3633 21.2352 14.6372 20.7057 15.8231C20.1762 17.009 19.4557 18.0327 18.5442 18.8942L17.5 17.8404C18.2667 17.1083 18.875 16.2389 19.325 15.2322C19.775 14.2255 20 13.1481 20 12C20 9.76667 19.225 7.87501 17.675 6.32501C16.125 4.77501 14.2333 4.00001 12 4.00001C9.76667 4.00001 7.87501 4.77501 6.32501 6.32501C4.77501 7.87501 4.00001 9.76667 4.00001 12C4.00001 13.15 4.22501 14.225 4.67501 15.225C5.12501 16.225 5.74167 17.0917 6.52501 17.825L5.45581 18.8942ZM8.28081 16.0692C7.73594 15.5641 7.30293 14.9627 6.98178 14.2652C6.66061 13.5676 6.50003 12.8126 6.50003 12C6.50003 10.4722 7.03453 9.17364 8.10353 8.10421C9.17253 7.03476 10.4706 6.50003 11.9977 6.50003C13.5249 6.50003 14.8237 7.03512 15.8942 8.10531C16.9647 9.17549 17.5 10.475 17.5 12.0038C17.5 12.8141 17.3394 13.5705 17.0182 14.2731C16.6971 14.9756 16.2641 15.5743 15.7192 16.0692L14.65 15C15.0667 14.6167 15.3958 14.1667 15.6375 13.65C15.8792 13.1333 16 12.5833 16 12C16 10.9 15.6083 9.95834 14.825 9.17501C14.0417 8.39167 13.1 8.00001 12 8.00001C10.9 8.00001 9.95834 8.39167 9.17501 9.17501C8.39167 9.95834 8.00001 10.9 8.00001 12C8.00001 12.6 8.12084 13.1542 8.36251 13.6625C8.60417 14.1708 8.93334 14.6167 9.35001 15L8.28081 16.0692Z" fill="black" fill-opacity="0.2"/>
<path d="M11.25 21.5V13.2923C11.0141 13.1474 10.8302 12.9667 10.6981 12.7503C10.5661 12.5338 10.5 12.2833 10.5 11.9988C10.5 11.5906 10.6478 11.2388 10.9433 10.9433C11.2388 10.6478 11.591 10.5 12 10.5C12.409 10.5 12.7612 10.6478 13.0567 10.9433C13.3522 11.2388 13.5 11.5903 13.5 11.9977C13.5 12.2817 13.434 12.5348 13.3019 12.757C13.1699 12.9792 12.9859 13.1577 12.75 13.2923V21.5H11.25ZM5.45581 18.8942C4.54427 18.0224 3.82376 16.9965 3.29428 15.8164C2.76478 14.6363 2.50003 13.3651 2.50003 12.0029C2.50003 10.6881 2.74936 9.45271 3.24803 8.29658C3.7467 7.14043 4.42345 6.13475 5.27828 5.27953C6.13313 4.4243 7.13837 3.74724 8.29401 3.24836C9.44962 2.74947 10.6844 2.50003 11.9983 2.50003C13.3123 2.50003 14.5473 2.74945 15.7034 3.24828C16.8596 3.7471 17.8653 4.42407 18.7205 5.27921C19.5757 6.13432 20.2528 7.13988 20.7517 8.29588C21.2505 9.45188 21.5 10.6871 21.5 12.0014C21.5 13.3633 21.2352 14.6372 20.7057 15.8231C20.1762 17.009 19.4557 18.0327 18.5442 18.8942L17.5 17.8404C18.2667 17.1083 18.875 16.2389 19.325 15.2322C19.775 14.2255 20 13.1481 20 12C20 9.76667 19.225 7.87501 17.675 6.32501C16.125 4.77501 14.2333 4.00001 12 4.00001C9.76667 4.00001 7.87501 4.77501 6.32501 6.32501C4.77501 7.87501 4.00001 9.76667 4.00001 12C4.00001 13.15 4.22501 14.225 4.67501 15.225C5.12501 16.225 5.74167 17.0917 6.52501 17.825L5.45581 18.8942ZM8.28081 16.0692C7.73594 15.5641 7.30293 14.9627 6.98178 14.2652C6.66061 13.5676 6.50003 12.8126 6.50003 12C6.50003 10.4722 7.03453 9.17364 8.10353 8.10421C9.17253 7.03476 10.4706 6.50003 11.9977 6.50003C13.5249 6.50003 14.8237 7.03512 15.8942 8.10531C16.9647 9.17549 17.5 10.475 17.5 12.0038C17.5 12.8141 17.3394 13.5705 17.0182 14.2731C16.6971 14.9756 16.2641 15.5743 15.7192 16.0692L14.65 15C15.0667 14.6167 15.3958 14.1667 15.6375 13.65C15.8792 13.1333 16 12.5833 16 12C16 10.9 15.6083 9.95834 14.825 9.17501C14.0417 8.39167 13.1 8.00001 12 8.00001C10.9 8.00001 9.95834 8.39167 9.17501 9.17501C8.39167 9.95834 8.00001 10.9 8.00001 12C8.00001 12.6 8.12084 13.1542 8.36251 13.6625C8.60417 14.1708 8.93334 14.6167 9.35001 15L8.28081 16.0692Z" fill="black" fill-opacity="0.2"/>
<path d="M11.25 21.5V13.2923C11.0141 13.1474 10.8302 12.9667 10.6981 12.7503C10.5661 12.5338 10.5 12.2833 10.5 11.9988C10.5 11.5906 10.6478 11.2388 10.9433 10.9433C11.2388 10.6478 11.591 10.5 12 10.5C12.409 10.5 12.7612 10.6478 13.0567 10.9433C13.3522 11.2388 13.5 11.5903 13.5 11.9977C13.5 12.2817 13.434 12.5348 13.3019 12.757C13.1699 12.9792 12.9859 13.1577 12.75 13.2923V21.5H11.25ZM5.45581 18.8942C4.54427 18.0224 3.82376 16.9965 3.29428 15.8164C2.76478 14.6363 2.50003 13.3651 2.50003 12.0029C2.50003 10.6881 2.74936 9.45271 3.24803 8.29658C3.7467 7.14043 4.42345 6.13475 5.27828 5.27953C6.13313 4.4243 7.13837 3.74724 8.29401 3.24836C9.44962 2.74947 10.6844 2.50003 11.9983 2.50003C13.3123 2.50003 14.5473 2.74945 15.7034 3.24828C16.8596 3.7471 17.8653 4.42407 18.7205 5.27921C19.5757 6.13432 20.2528 7.13988 20.7517 8.29588C21.2505 9.45188 21.5 10.6871 21.5 12.0014C21.5 13.3633 21.2352 14.6372 20.7057 15.8231C20.1762 17.009 19.4557 18.0327 18.5442 18.8942L17.5 17.8404C18.2667 17.1083 18.875 16.2389 19.325 15.2322C19.775 14.2255 20 13.1481 20 12C20 9.76667 19.225 7.87501 17.675 6.32501C16.125 4.77501 14.2333 4.00001 12 4.00001C9.76667 4.00001 7.87501 4.77501 6.32501 6.32501C4.77501 7.87501 4.00001 9.76667 4.00001 12C4.00001 13.15 4.22501 14.225 4.67501 15.225C5.12501 16.225 5.74167 17.0917 6.52501 17.825L5.45581 18.8942ZM8.28081 16.0692C7.73594 15.5641 7.30293 14.9627 6.98178 14.2652C6.66061 13.5676 6.50003 12.8126 6.50003 12C6.50003 10.4722 7.03453 9.17364 8.10353 8.10421C9.17253 7.03476 10.4706 6.50003 11.9977 6.50003C13.5249 6.50003 14.8237 7.03512 15.8942 8.10531C16.9647 9.17549 17.5 10.475 17.5 12.0038C17.5 12.8141 17.3394 13.5705 17.0182 14.2731C16.6971 14.9756 16.2641 15.5743 15.7192 16.0692L14.65 15C15.0667 14.6167 15.3958 14.1667 15.6375 13.65C15.8792 13.1333 16 12.5833 16 12C16 10.9 15.6083 9.95834 14.825 9.17501C14.0417 8.39167 13.1 8.00001 12 8.00001C10.9 8.00001 9.95834 8.39167 9.17501 9.17501C8.39167 9.95834 8.00001 10.9 8.00001 12C8.00001 12.6 8.12084 13.1542 8.36251 13.6625C8.60417 14.1708 8.93334 14.6167 9.35001 15L8.28081 16.0692Z" fill="black" fill-opacity="0.2"/>
<path d="M11.25 21.5V13.2923C11.0141 13.1474 10.8302 12.9667 10.6981 12.7503C10.5661 12.5338 10.5 12.2833 10.5 11.9988C10.5 11.5906 10.6478 11.2388 10.9433 10.9433C11.2388 10.6478 11.591 10.5 12 10.5C12.409 10.5 12.7612 10.6478 13.0567 10.9433C13.3522 11.2388 13.5 11.5903 13.5 11.9977C13.5 12.2817 13.434 12.5348 13.3019 12.757C13.1699 12.9792 12.9859 13.1577 12.75 13.2923V21.5H11.25ZM5.45581 18.8942C4.54427 18.0224 3.82376 16.9965 3.29428 15.8164C2.76478 14.6363 2.50003 13.3651 2.50003 12.0029C2.50003 10.6881 2.74936 9.45271 3.24803 8.29658C3.7467 7.14043 4.42345 6.13475 5.27828 5.27953C6.13313 4.4243 7.13837 3.74724 8.29401 3.24836C9.44962 2.74947 10.6844 2.50003 11.9983 2.50003C13.3123 2.50003 14.5473 2.74945 15.7034 3.24828C16.8596 3.7471 17.8653 4.42407 18.7205 5.27921C19.5757 6.13432 20.2528 7.13988 20.7517 8.29588C21.2505 9.45188 21.5 10.6871 21.5 12.0014C21.5 13.3633 21.2352 14.6372 20.7057 15.8231C20.1762 17.009 19.4557 18.0327 18.5442 18.8942L17.5 17.8404C18.2667 17.1083 18.875 16.2389 19.325 15.2322C19.775 14.2255 20 13.1481 20 12C20 9.76667 19.225 7.87501 17.675 6.32501C16.125 4.77501 14.2333 4.00001 12 4.00001C9.76667 4.00001 7.87501 4.77501 6.32501 6.32501C4.77501 7.87501 4.00001 9.76667 4.00001 12C4.00001 13.15 4.22501 14.225 4.67501 15.225C5.12501 16.225 5.74167 17.0917 6.52501 17.825L5.45581 18.8942ZM8.28081 16.0692C7.73594 15.5641 7.30293 14.9627 6.98178 14.2652C6.66061 13.5676 6.50003 12.8126 6.50003 12C6.50003 10.4722 7.03453 9.17364 8.10353 8.10421C9.17253 7.03476 10.4706 6.50003 11.9977 6.50003C13.5249 6.50003 14.8237 7.03512 15.8942 8.10531C16.9647 9.17549 17.5 10.475 17.5 12.0038C17.5 12.8141 17.3394 13.5705 17.0182 14.2731C16.6971 14.9756 16.2641 15.5743 15.7192 16.0692L14.65 15C15.0667 14.6167 15.3958 14.1667 15.6375 13.65C15.8792 13.1333 16 12.5833 16 12C16 10.9 15.6083 9.95834 14.825 9.17501C14.0417 8.39167 13.1 8.00001 12 8.00001C10.9 8.00001 9.95834 8.39167 9.17501 9.17501C8.39167 9.95834 8.00001 10.9 8.00001 12C8.00001 12.6 8.12084 13.1542 8.36251 13.6625C8.60417 14.1708 8.93334 14.6167 9.35001 15L8.28081 16.0692Z" fill="black" fill-opacity="0.2"/>
</g>
</svg>
