<svg width="24" height="24" viewBox="0 0 24 24" fill="none" xmlns="http://www.w3.org/2000/svg">
<mask id="mask0_1536_210603" style="mask-type:alpha" maskUnits="userSpaceOnUse" x="0" y="0" width="24" height="24">
<rect width="24" height="24" fill="#D9D9D9"/>
</mask>
<g mask="url(#mask0_1536_210603)">
<path d="M4.59619 17.9538C3.9949 17.2205 3.52344 16.4471 3.18179 15.6337C2.84012 14.8202 2.61929 13.9423 2.51929 13H4.05001C4.15001 13.7334 4.33335 14.4292 4.60001 15.0875C4.86668 15.7459 5.21668 16.35 5.65001 16.9L4.59619 17.9538ZM2.51929 11C2.63979 10.0577 2.86575 9.18145 3.19716 8.3712C3.52856 7.56095 3.9949 6.78916 4.59619 6.05582L5.65001 7.10965C5.21668 7.65965 4.86668 8.26221 4.60001 8.91733C4.33335 9.57246 4.15001 10.2667 4.05001 11H2.51929ZM10.95 21.45C9.96925 21.3308 9.08431 21.1003 8.29521 20.7586C7.50613 20.417 6.73979 19.959 5.99619 19.3846L7.05001 18.3C7.61411 18.7269 8.2202 19.0837 8.86829 19.3702C9.51635 19.6568 10.2103 19.85 10.95 19.95V21.45ZM7.10001 5.6904L6.01541 4.60582C6.75901 4.03146 7.52536 3.57505 8.31446 3.2366C9.10355 2.89813 9.99873 2.66928 11 2.55005V4.05002C10.25 4.15002 9.54841 4.34169 8.89521 4.62502C8.242 4.90836 7.6436 5.26348 7.10001 5.6904ZM9.75004 16.0384V7.9616L16.0384 12L9.75004 16.0384ZM13 21.45V19.95C15.0167 19.6667 16.6875 18.775 18.0125 17.275C19.3375 15.775 20 14.0167 20 12C20 9.98336 19.3375 8.22502 18.0125 6.72502C16.6875 5.22502 15.0167 4.33336 13 4.05002V2.55005C15.432 2.81417 17.4567 3.84302 19.074 5.6366C20.6913 7.43018 21.5 9.55132 21.5 12C21.5 14.4487 20.6913 16.5699 19.074 18.3634C17.4567 20.157 15.432 21.1859 13 21.45Z" fill="#0C1215"/>
<path d="M4.59619 17.9538C3.9949 17.2205 3.52344 16.4471 3.18179 15.6337C2.84012 14.8202 2.61929 13.9423 2.51929 13H4.05001C4.15001 13.7334 4.33335 14.4292 4.60001 15.0875C4.86668 15.7459 5.21668 16.35 5.65001 16.9L4.59619 17.9538ZM2.51929 11C2.63979 10.0577 2.86575 9.18145 3.19716 8.3712C3.52856 7.56095 3.9949 6.78916 4.59619 6.05582L5.65001 7.10965C5.21668 7.65965 4.86668 8.26221 4.60001 8.91733C4.33335 9.57246 4.15001 10.2667 4.05001 11H2.51929ZM10.95 21.45C9.96925 21.3308 9.08431 21.1003 8.29521 20.7586C7.50613 20.417 6.73979 19.959 5.99619 19.3846L7.05001 18.3C7.61411 18.7269 8.2202 19.0837 8.86829 19.3702C9.51635 19.6568 10.2103 19.85 10.95 19.95V21.45ZM7.10001 5.6904L6.01541 4.60582C6.75901 4.03146 7.52536 3.57505 8.31446 3.2366C9.10355 2.89813 9.99873 2.66928 11 2.55005V4.05002C10.25 4.15002 9.54841 4.34169 8.89521 4.62502C8.242 4.90836 7.6436 5.26348 7.10001 5.6904ZM9.75004 16.0384V7.9616L16.0384 12L9.75004 16.0384ZM13 21.45V19.95C15.0167 19.6667 16.6875 18.775 18.0125 17.275C19.3375 15.775 20 14.0167 20 12C20 9.98336 19.3375 8.22502 18.0125 6.72502C16.6875 5.22502 15.0167 4.33336 13 4.05002V2.55005C15.432 2.81417 17.4567 3.84302 19.074 5.6366C20.6913 7.43018 21.5 9.55132 21.5 12C21.5 14.4487 20.6913 16.5699 19.074 18.3634C17.4567 20.157 15.432 21.1859 13 21.45Z" fill="black" fill-opacity="0.2"/>
<path d="M4.59619 17.9538C3.9949 17.2205 3.52344 16.4471 3.18179 15.6337C2.84012 14.8202 2.61929 13.9423 2.51929 13H4.05001C4.15001 13.7334 4.33335 14.4292 4.60001 15.0875C4.86668 15.7459 5.21668 16.35 5.65001 16.9L4.59619 17.9538ZM2.51929 11C2.63979 10.0577 2.86575 9.18145 3.19716 8.3712C3.52856 7.56095 3.9949 6.78916 4.59619 6.05582L5.65001 7.10965C5.21668 7.65965 4.86668 8.26221 4.60001 8.91733C4.33335 9.57246 4.15001 10.2667 4.05001 11H2.51929ZM10.95 21.45C9.96925 21.3308 9.08431 21.1003 8.29521 20.7586C7.50613 20.417 6.73979 19.959 5.99619 19.3846L7.05001 18.3C7.61411 18.7269 8.2202 19.0837 8.86829 19.3702C9.51635 19.6568 10.2103 19.85 10.95 19.95V21.45ZM7.10001 5.6904L6.01541 4.60582C6.75901 4.03146 7.52536 3.57505 8.31446 3.2366C9.10355 2.89813 9.99873 2.66928 11 2.55005V4.05002C10.25 4.15002 9.54841 4.34169 8.89521 4.62502C8.242 4.90836 7.6436 5.26348 7.10001 5.6904ZM9.75004 16.0384V7.9616L16.0384 12L9.75004 16.0384ZM13 21.45V19.95C15.0167 19.6667 16.6875 18.775 18.0125 17.275C19.3375 15.775 20 14.0167 20 12C20 9.98336 19.3375 8.22502 18.0125 6.72502C16.6875 5.22502 15.0167 4.33336 13 4.05002V2.55005C15.432 2.81417 17.4567 3.84302 19.074 5.6366C20.6913 7.43018 21.5 9.55132 21.5 12C21.5 14.4487 20.6913 16.5699 19.074 18.3634C17.4567 20.157 15.432 21.1859 13 21.45Z" fill="black" fill-opacity="0.2"/>
<path d="M4.59619 17.9538C3.9949 17.2205 3.52344 16.4471 3.18179 15.6337C2.84012 14.8202 2.61929 13.9423 2.51929 13H4.05001C4.15001 13.7334 4.33335 14.4292 4.60001 15.0875C4.86668 15.7459 5.21668 16.35 5.65001 16.9L4.59619 17.9538ZM2.51929 11C2.63979 10.0577 2.86575 9.18145 3.19716 8.3712C3.52856 7.56095 3.9949 6.78916 4.59619 6.05582L5.65001 7.10965C5.21668 7.65965 4.86668 8.26221 4.60001 8.91733C4.33335 9.57246 4.15001 10.2667 4.05001 11H2.51929ZM10.95 21.45C9.96925 21.3308 9.08431 21.1003 8.29521 20.7586C7.50613 20.417 6.73979 19.959 5.99619 19.3846L7.05001 18.3C7.61411 18.7269 8.2202 19.0837 8.86829 19.3702C9.51635 19.6568 10.2103 19.85 10.95 19.95V21.45ZM7.10001 5.6904L6.01541 4.60582C6.75901 4.03146 7.52536 3.57505 8.31446 3.2366C9.10355 2.89813 9.99873 2.66928 11 2.55005V4.05002C10.25 4.15002 9.54841 4.34169 8.89521 4.62502C8.242 4.90836 7.6436 5.26348 7.10001 5.6904ZM9.75004 16.0384V7.9616L16.0384 12L9.75004 16.0384ZM13 21.45V19.95C15.0167 19.6667 16.6875 18.775 18.0125 17.275C19.3375 15.775 20 14.0167 20 12C20 9.98336 19.3375 8.22502 18.0125 6.72502C16.6875 5.22502 15.0167 4.33336 13 4.05002V2.55005C15.432 2.81417 17.4567 3.84302 19.074 5.6366C20.6913 7.43018 21.5 9.55132 21.5 12C21.5 14.4487 20.6913 16.5699 19.074 18.3634C17.4567 20.157 15.432 21.1859 13 21.45Z" fill="black" fill-opacity="0.2"/>
<path d="M4.59619 17.9538C3.9949 17.2205 3.52344 16.4471 3.18179 15.6337C2.84012 14.8202 2.61929 13.9423 2.51929 13H4.05001C4.15001 13.7334 4.33335 14.4292 4.60001 15.0875C4.86668 15.7459 5.21668 16.35 5.65001 16.9L4.59619 17.9538ZM2.51929 11C2.63979 10.0577 2.86575 9.18145 3.19716 8.3712C3.52856 7.56095 3.9949 6.78916 4.59619 6.05582L5.65001 7.10965C5.21668 7.65965 4.86668 8.26221 4.60001 8.91733C4.33335 9.57246 4.15001 10.2667 4.05001 11H2.51929ZM10.95 21.45C9.96925 21.3308 9.08431 21.1003 8.29521 20.7586C7.50613 20.417 6.73979 19.959 5.99619 19.3846L7.05001 18.3C7.61411 18.7269 8.2202 19.0837 8.86829 19.3702C9.51635 19.6568 10.2103 19.85 10.95 19.95V21.45ZM7.10001 5.6904L6.01541 4.60582C6.75901 4.03146 7.52536 3.57505 8.31446 3.2366C9.10355 2.89813 9.99873 2.66928 11 2.55005V4.05002C10.25 4.15002 9.54841 4.34169 8.89521 4.62502C8.242 4.90836 7.6436 5.26348 7.10001 5.6904ZM9.75004 16.0384V7.9616L16.0384 12L9.75004 16.0384ZM13 21.45V19.95C15.0167 19.6667 16.6875 18.775 18.0125 17.275C19.3375 15.775 20 14.0167 20 12C20 9.98336 19.3375 8.22502 18.0125 6.72502C16.6875 5.22502 15.0167 4.33336 13 4.05002V2.55005C15.432 2.81417 17.4567 3.84302 19.074 5.6366C20.6913 7.43018 21.5 9.55132 21.5 12C21.5 14.4487 20.6913 16.5699 19.074 18.3634C17.4567 20.157 15.432 21.1859 13 21.45Z" fill="black" fill-opacity="0.2"/>
</g>
</svg>
